<svg width="1200" height="900" viewBox="0 0 1200 900" xmlns="http://www.w3.org/2000/svg">
  <defs>
    <linearGradient id="bg" x1="0" y1="0" x2="1" y2="1">
      <stop offset="0%" stop-color="#fff7ed"/>
      <stop offset="100%" stop-color="#fde68a"/>
    </linearGradient>
  </defs>
  <rect width="1200" height="900" fill="url(#bg)"/>
  <circle cx="920" cy="160" r="76" fill="#f97316" opacity="0.55"/>
  <path d="M0 640C200 560 430 550 650 640C830 712 1030 706 1200 640V900H0V640Z" fill="#fdba74" opacity="0.7"/>
  <path d="M0 730C220 672 430 664 650 730C850 792 1040 790 1200 738V900H0V730Z" fill="#fb923c" opacity="0.45"/>
  <g transform="translate(200 480)">
    <rect x="0" y="98" width="214" height="132" rx="14" fill="#fffbeb"/>
    <polygon points="-16,108 107,20 230,108" fill="#b45309"/>
    <rect x="32" y="138" width="48" height="38" rx="6" fill="#ffffff"/>
    <rect x="134" y="138" width="48" height="38" rx="6" fill="#ffffff"/>
    <rect x="92" y="170" width="34" height="60" rx="6" fill="#fed7aa"/>
  </g>
  <g transform="translate(770 410)">
    <rect x="0" y="196" width="24" height="100" rx="8" fill="#7c2d12"/>
    <circle cx="12" cy="140" r="64" fill="#ea580c"/>
    <circle cx="-24" cy="162" r="38" fill="#f97316"/>
    <circle cx="48" cy="162" r="38" fill="#f97316"/>
  </g>
  <g fill="#c2410c" opacity="0.55">
    <path d="M620 520c14-10 30 7 24 22-7 15-30 18-36 4-5-12 2-22 12-26z"/>
    <path d="M680 548c13-8 28 8 21 20-7 12-25 16-32 4-6-9-2-19 11-24z"/>
    <path d="M730 520c13-8 28 8 21 20-7 12-25 16-32 4-6-9-2-19 11-24z"/>
  </g>
</svg>
