<svg width="1200" height="900" viewBox="0 0 1200 900" xmlns="http://www.w3.org/2000/svg">
  <defs>
    <linearGradient id="bg" x1="0" y1="0" x2="1" y2="1">
      <stop offset="0%" stop-color="#eff6ff"/>
      <stop offset="100%" stop-color="#e0e7ff"/>
    </linearGradient>
    <linearGradient id="hill" x1="0" y1="0" x2="0" y2="1">
      <stop offset="0%" stop-color="#ffffff"/>
      <stop offset="100%" stop-color="#dbeafe"/>
    </linearGradient>
  </defs>
  <rect width="1200" height="900" fill="url(#bg)"/>
  <circle cx="930" cy="150" r="70" fill="#f8fafc"/>
  <g fill="#ffffff" opacity="0.9">
    <circle cx="210" cy="170" r="34"/>
    <circle cx="250" cy="170" r="28"/>
    <circle cx="178" cy="182" r="24"/>
  </g>
  <g fill="#ffffff" opacity="0.85">
    <circle cx="530" cy="130" r="28"/>
    <circle cx="560" cy="130" r="24"/>
    <circle cx="502" cy="140" r="22"/>
  </g>
  <path d="M0 620C180 560 360 560 520 620C700 690 930 680 1200 600V900H0V620Z" fill="url(#hill)"/>
  <path d="M0 710C210 660 390 650 610 710C780 760 990 760 1200 700V900H0V710Z" fill="#f8fbff" opacity="0.95"/>
  <g transform="translate(720 430)">
    <rect x="0" y="110" width="210" height="130" rx="14" fill="#fef2f2"/>
    <polygon points="-15,120 105,40 225,120" fill="#fb7185"/>
    <rect x="30" y="150" width="50" height="40" rx="6" fill="#ffffff"/>
    <rect x="130" y="150" width="50" height="40" rx="6" fill="#ffffff"/>
    <rect x="88" y="180" width="36" height="60" rx="6" fill="#fee2e2"/>
    <rect x="165" y="70" width="18" height="48" rx="3" fill="#cbd5e1"/>
  </g>
  <g fill="#ffffff" opacity="0.75">
    <circle cx="120" cy="120" r="4"/>
    <circle cx="350" cy="240" r="3"/>
    <circle cx="620" cy="190" r="4"/>
    <circle cx="840" cy="320" r="3"/>
    <circle cx="1020" cy="260" r="4"/>
    <circle cx="1120" cy="180" r="3"/>
  </g>
</svg>
