<svg width="1200" height="900" viewBox="0 0 1200 900" xmlns="http://www.w3.org/2000/svg">
  <defs>
    <linearGradient id="bg" x1="0" y1="0" x2="1" y2="1">
      <stop offset="0%" stop-color="#fff7ed"/>
      <stop offset="100%" stop-color="#ffedd5"/>
    </linearGradient>
  </defs>
  <rect width="1200" height="900" fill="url(#bg)"/>
  <circle cx="940" cy="160" r="86" fill="#f59e0b" opacity="0.75"/>
  <path d="M0 620C230 560 430 560 620 620C820 680 1020 680 1200 620V900H0V620Z" fill="#fde68a" opacity="0.7"/>
  <path d="M0 700C230 650 460 640 700 700C900 750 1050 750 1200 710V900H0V700Z" fill="#fdba74" opacity="0.55"/>
  <g transform="translate(720 470)">
    <rect x="0" y="100" width="220" height="130" rx="14" fill="#fff1f2"/>
    <polygon points="-18,110 110,24 238,110" fill="#f43f5e"/>
    <rect x="32" y="140" width="48" height="38" rx="6" fill="#ffffff"/>
    <rect x="138" y="140" width="48" height="38" rx="6" fill="#ffffff"/>
    <rect x="92" y="170" width="38" height="60" rx="6" fill="#fecdd3"/>
  </g>
  <g transform="translate(260 420)">
    <rect x="0" y="180" width="24" height="110" rx="8" fill="#a16207"/>
    <circle cx="12" cy="130" r="72" fill="#16a34a"/>
    <circle cx="-26" cy="152" r="44" fill="#22c55e"/>
    <circle cx="50" cy="152" r="44" fill="#22c55e"/>
  </g>
  <g fill="#ffffff" opacity="0.75">
    <circle cx="190" cy="180" r="28"/>
    <circle cx="222" cy="180" r="24"/>
    <circle cx="166" cy="190" r="20"/>
  </g>
</svg>
